PathFileType	4	(X/Y/Z)	29_2_67_p1_0-366.trc
DataRate	CameraRate	NumFrames	NumMarkers	Units	OrigDataRate	OrigDataStartFrame	OrigNumFrames
52.0	52.0	6	27	m	52.0	275	367
Frame#	Time	RHip			RKnee			RAnkle			RBigToe			RSmallToe			RHeel			LHip			LKnee			LAnkle			LBigToe			LSmallToe			LHeel			Neck			Head			Nose			RShoulder			RElbow			RWrist			RThumb			RIndex			RPinky			LShoulder			LElbow			LWrist			LThumb			LIndex			LPinky			
		X1	Y1	Z1	X2	Y2	Z2	X3	Y3	Z3	X4	Y4	Z4	X5	Y5	Z5	X6	Y6	Z6	X7	Y7	Z7	X8	Y8	Z8	X9	Y9	Z9	X10	Y10	Z10	X11	Y11	Z11	X12	Y12	Z12	X13	Y13	Z13	X14	Y14	Z14	X15	Y15	Z15	X16	Y16	Z16	X17	Y17	Z17	X18	Y18	Z18	X19	Y19	Z19	X20	Y20	Z20	X21	Y21	Z21	X22	Y22	Z22	X23	Y23	Z23	X24	Y24	Z24	X25	Y25	Z25	X26	Y26	Z26	X27	Y27	Z27	
275	5.288461538461538	0.3610762215367158	0.5905540509436971	0.9039452201840318	0.3353027983072907	0.7054988001531991	1.329692613225602	0.3011027729658857	0.79386852155853	1.7404859425583104	0.3012728143242118	0.5839923586545915	1.7516481651548486	0.35589179332447607	0.6127089298609206	1.7504297243677809	0.269496139256225	0.9046889754298388	1.8087883333594346	0.13806220381014084	0.584255496663644	0.8971133890770697	0.11223182273055159	0.6687559546201857	1.3110845202682078	0.09890593593587281	0.7805126409754056	1.7264511787833021	0.12295334713306712	0.5779834023488026	1.7371975257752628	0.07706399649735614	0.6169108181264769	1.7386101286221154	0.10892247390317525	0.8532342148857417	1.7847050122665793	0.2811790169231885	0.4945339211377559	0.32473413512236887	0.30955477234739004	0.39887538574816767	0.07632548001091365	0.27487286850479437	0.3229863450085585	0.2059642512559894	0.42651635826524026	0.4850266367471916	0.44487353134858687	0.4744638179617304	0.5953784665089191	0.7034304317965414	0.47330822200390127	0.6427498916241747	0.9716798307888939	0.42304548584236085	0.5592165037390326	1.059499849827971	0.4492425960476545	0.5979391673087897	1.0754195866077536	0.4776879860502712	0.6675379037301684	1.0938902338868337	0.12266932074282853	0.5033656706973872	0.4235042279475767	0.04143986492575049	0.5676583253317983	0.6869920569443931	0.02312060650527873	0.5950819944909463	0.9305241114477067	0.06319184213948358	0.5323509761722283	1.0230113425791858	0.027132369874798865	0.5301456069547924	1.0476644049616708	0.007878789915721196	0.5615586966257835	1.0446671482134544
276	5.3076923076923075	0.3569066129064552	0.6049615156102989	0.9059973219705068	0.33119768248866865	0.7042128313114262	1.3294486050408951	0.30113998818268617	0.7939874081648616	1.7404830211000708	0.2965115610667329	0.599408415611976	1.7582065811991194	0.3484633818754288	0.5978992580038398	1.7444334845714455	0.26964268920353246	0.9045201292014089	1.8082939580558564	0.13795218344922294	0.5844307622339303	0.8970108321742265	0.11207829177567843	0.6700442530016553	1.3070121199604159	0.09907647977546064	0.7805381837542886	1.7264539720079546	0.12425709854510965	0.5764427874484309	1.73290226252307	0.0773745389189591	0.6159778859814754	1.7377623610752473	0.10899020837802087	0.8535915885654861	1.7849586797124626	0.2811158066840957	0.49467539654803333	0.3247640100520774	0.3095976736370145	0.3989090147966865	0.07659386280003082	0.2748602971703095	0.32300525440617495	0.2059204401729532	0.42645064829953777	0.4850928947532809	0.4448313435923175	0.47453833571574666	0.5955522062290101	0.7034094897909141	0.4733278075991917	0.6428521944529874	0.9716601513286313	0.4192368368094083	0.5589251934210684	1.0630366890867167	0.44470917779916525	0.5947402750928789	1.0748897096845378	0.47777215109934523	0.6674872866446264	1.0938891180368588	0.12263396104067835	0.5049416199697528	0.427088420833897	0.04145012089351248	0.5670033004339041	0.6868968145803803	0.021038200131592664	0.5817780739538098	0.9244417728598076	0.06346569516106443	0.5333241148137253	1.02334077248924	0.03471109029519302	0.5453385528314078	1.0504697833282244	0.0059092390708823704	0.545497473617414	1.0377467193406955
277	5.326923076923077	0.3612325115396024	0.5908984851436289	0.9039724516659758	0.3322396795341415	0.7027921013794182	1.3246569284093683	0.30116798538361667	0.7938279048126192	1.7403718337031777	0.3013632690891295	0.5840811288668228	1.7515664110123084	0.34858544088208204	0.5979704002306316	1.7444523010209607	0.2752958551234317	0.8862696255714795	1.8008867856957245	0.1379982190364651	0.5843173062052703	0.89696556772103	0.11228789887362173	0.668829775560352	1.3111122073602097	0.09905154144576261	0.7804629422660302	1.7263994905980882	0.12427066374990087	0.5763725842845885	1.7329071204857909	0.07739616482327005	0.6159184538836083	1.7378027193339083	0.10896718384263515	0.8532367511468765	1.7847024658440038	0.28602125469902673	0.4814373595443803	0.32233464599401856	0.3096087245788086	0.398913033822241	0.07652068916116622	0.27486983817254906	0.32308646641730066	0.2059221532061022	0.42644090106806243	0.48499638800193745	0.44486081669944183	0.4745361703267072	0.5956928101836464	0.7034850832874219	0.4733492922702771	0.6426323234910382	0.9716411727128826	0.4186973000536869	0.5570129835566142	1.059075621832203	0.4439157353319785	0.595740259296682	1.0792511018494209	0.4771804065363045	0.6655079874182283	1.0897660994803418	0.1281582879706781	0.4902430343677344	0.4205041906717716	0.041464715011528944	0.5672041690002649	0.6869751204631469	0.02292523258036402	0.5958327785870811	0.9265223023033834	0.06338625529554469	0.5327512889667396	1.0230732597756262	0.027460136785448865	0.5299394354347052	1.0476985884998207	0.006167428269501127	0.5474671738051441	1.0417867698377554
278	5.346153846153846	0.3611510347143916	0.5909441172753459	0.9040378598049417	0.33116531847524705	0.7040719148231359	1.3293309538439024	0.30114852219120447	0.7938152353900245	1.7404105224810718	0.2965273222382659	0.599828725881761	1.75838517073215	0.3484324843573903	0.5980575819366638	1.7444616664287316	0.27530498844276147	0.8861780855408932	1.8010172780170444	0.13798753112009499	0.5843719529118255	0.8970033567240342	0.11211949451758138	0.6700214793880231	1.3070701777879483	0.0990197106260431	0.7804372324364985	1.7263850436661048	0.12422531654074234	0.5762075348768352	1.732733448868295	0.07735454362596307	0.615729937100537	1.7375556387060382	0.10900312842074239	0.8531414736845956	1.784642929802359	0.28115008567604316	0.4946341856900361	0.3247671084935901	0.3096209371885756	0.39894904666140435	0.07646222158644139	0.27483485340483305	0.32316741913903346	0.20600092091057517	0.42639150922777946	0.48497996617386585	0.4448797947058653	0.47875137789463734	0.5964080883703343	0.7036370445662864	0.47333350554980297	0.6426977964364328	0.9716514316433034	0.4191837849517204	0.5589862342543856	1.0631617446009505	0.4437957001939418	0.5954140271736563	1.079292269524777	0.4772604064977761	0.6651554297151453	1.0897131825205415	0.1281957166268877	0.4903762805684228	0.420378009595941	0.04142170637520721	0.5674944925410241	0.6869269879084386	0.022923930754470544	0.5958916007943026	0.9264610595794612	0.06350987147881641	0.5329624387551	1.0231195217428781	0.03376983161977941	0.5309262734008499	1.047632339504071	0.006101694641706741	0.5474743451995048	1.0417682786483857
279	5.365384615384615	0.3568006216465902	0.6051131746491858	0.9061044927650375	0.3311789403379076	0.7041311589438952	1.329346414361297	0.30110780253295477	0.7938277583982	1.7404474237030603	0.29652155203115915	0.6001849062631738	1.7584849979495365	0.34841659881491865	0.5983055532171779	1.7445141243822724	0.2752592734787832	0.8862764186189407	1.8012031727918056	0.13800276354834976	0.5844187940463645	0.8970352503261627	0.1121160663016942	0.6702692574558108	1.3070594409514023	0.09899610271020207	0.7805128457192652	1.7264769725412599	0.12416405678057657	0.5763508182983119	1.732869957553125	0.07282284083966145	0.6154856665131028	1.7377200289331913	0.10910440175347055	0.8534530608977982	1.7848786254817137	0.2811035922947229	0.49475580876560954	0.32479911419755275	0.3096248378996483	0.39889247227648583	0.07660234423842802	0.27490310613530256	0.32292329275936155	0.20609963946207951	0.42641072808243646	0.48508361072242656	0.44491146063217485	0.4745110548331271	0.595459331980745	0.7034182025032764	0.47333699978413246	0.6427019174664312	0.9716522041506234	0.41918538829625157	0.5591588685020468	1.0632097444276212	0.443756866619201	0.5957137359296977	1.079344753004489	0.47723241468976757	0.6654527493276071	1.0897700218359136	0.12816176998943402	0.4903538732932076	0.42048964309100706	0.04143291966639304	0.5674901983523053	0.6869256426539314	0.022958312592746347	0.5958557060258141	0.9265528705129854	0.06355360369899557	0.5330855772115713	1.0233273072983249	0.03370973474237331	0.5309161421454823	1.0476312465554947	0.0060917543610461145	0.5472269061086673	1.04176404699177
280	5.384615384615385	0.3567577220876543	0.6054124331380928	0.9062018006646873	0.33531252237934167	0.705437857298049	1.329650131700088	0.3011025864944757	0.7939785822545217	1.7404479927386625	0.2965101853253726	0.600159391741278	1.758471437445184	0.3484026050260475	0.5984513348077838	1.7445363777309855	0.2696039398688702	0.9044992344161965	1.8082842993289852	0.13799434658149518	0.5844434140144682	0.8970109769662866	0.11428999697647706	0.6844512331729526	1.3108672228267042	0.09901662097164446	0.780552129613989	1.7264683438274853	0.12417977652936266	0.5763151304139428	1.732905308607311	0.07293119338222512	0.615402089142965	1.737705304243812	0.10912133657234697	0.8539118449322358	1.785081495761271	0.28121618897459244	0.49446693067765146	0.32835141649015503	0.3096540097626167	0.3989449549161981	0.07668833021424377	0.27500700008107704	0.32276940681049643	0.2061535642339337	0.42638852903909163	0.48503358646545397	0.44491041825801075	0.4745094966296642	0.5955196887255801	0.7034461316323195	0.4732934601411073	0.6429268581623585	0.9716999875924577	0.423404268651996	0.5613345073871293	1.063586411153056	0.44788789920428235	0.5984171801984071	1.0799142877540222	0.4777224570388313	0.6673984957532747	1.0939250283920774	0.12816668038695841	0.4904688933370192	0.42041793720122267	0.04135430160504552	0.565450947044644	0.6831269310176468	0.022942700598493137	0.5960215942706006	0.9264738239941233	0.06359408388278336	0.5329746660626349	1.0230762719388653	0.03367256932577145	0.5309131286727884	1.0475883200008913	0.005885840681045427	0.547005022031711	1.0415923022866884
